:SAMPLES-PER-SECOND 30
:FRAME-RANGE 1-3358
:FULLY-SPECIFIED
:DEGREES
3044
root  37.7556 39.4232 -69.9599 174.507 67.9802 174.971
RightUpLeg  4.88333 -4.99806 4.47522
RightLeg  10.6693 -21.9981 -0.145117
RightFoot  -16.4852 -0.1223 -0.239989
RightToes  -5.8209e-011 0 -3.6325e-017
Spine  11.3625 6.14723 14.2588
Spine1  -2.22665 9.90089 -14.5823
HEad  -18.706 65.0002 -31.2287
LeftShoulder1  0.839752 1.41811 -34.1694
LeftArm  -11.3232 1.87494 -31.558
LeftForeArm  12.3027 -1.90258 -15.6086
LeftHand  0.0943312 -0.376066 -1.8275
RightShoulder  9.3131 14.1483 46.1418
RightArm  -4.7116 1.84077 13.4682
RightForeArm  12.6798 -0.0793743 15.3889
RightHand  0.115738 6.20078 0.819636
LeftUpLeg  -21.0525 15.2705 -5.8269
LeftLeg  16.5533 -1.15628 -0.0681857
LeftFoot  -0.239839 1.53561 -15.7056
LeftToes  -4.03819e-010 -8.71445e-011 8.52097e-011
3045
root  39.1345 39.1668 -69.8892 175.639 65.8528 176.56
RightUpLeg  7.68785 -4.78878 5.81826
RightLeg  9.99002 -24.4577 0.580506
RightFoot  -18.1977 -0.128612 -0.0917689
RightToes  -5.8209e-011 0 -3.6325e-017
Spine  10.3266 6.23794 13.5651
Spine1  -1.93997 9.87961 -14.4634
HEad  -18.7772 64.6492 -29.9322
LeftShoulder1  0.748779 1.62763 -33.8176
LeftArm  -13.4107 3.20597 -30.2256
LeftForeArm  10.7482 -0.103784 -15.7366
LeftHand  0.0893878 0.289193 -2.09135
RightShoulder  9.13629 14.1296 45.2844
RightArm  -5.99512 2.09451 13.1672
RightForeArm  12.8907 0.33492 15.0654
RightHand  0.0922372 6.14943 0.590163
LeftUpLeg  -20.3689 20.1978 -9.51582
LeftLeg  12.4197 2.87685 -1.19817
LeftFoot  2.1798 1.33213 -11.3215
LeftToes  -4.03819e-010 -8.71445e-011 8.52097e-011
3046
root  40.5586 38.8262 -69.8399 176.4 63.2276 177.755
RightUpLeg  9.9746 -6.72064 6.47668
RightLeg  10.66 -24.7218 1.506
RightFoot  -20.3118 -0.0753342 0.792356
RightToes  -5.8209e-011 0 -3.6325e-017
Spine  9.41307 6.37098 12.4042
Spine1  -2.011 9.82556 -14.1419
HEad  -17.8869 64.4079 -27.985
LeftShoulder1  0.687324 1.76105 -33.3493
LeftArm  -15.2405 4.18265 -28.853
LeftForeArm  8.80029 1.20453 -15.6899
LeftHand  0.0956637 0.737527 -2.51767
RightShoulder  8.72065 13.5142 44.7724
RightArm  -5.67472 1.81643 12.6917
RightForeArm  11.8071 1.51943 14.9454
RightHand  0.0808839 6.03153 0.487631
LeftUpLeg  -19.4489 22.0779 -12.025
LeftLeg  11.6359 12.7626 -1.53824
LeftFoot  2.65658 -0.375391 2.92622
LeftToes  -4.03819e-010 -8.71445e-011 8.52097e-011
3047
root  42.0282 38.4697 -69.7697 177.129 60.4933 178.759
RightUpLeg  11.3555 -19.9538 4.51697
RightLeg  14.6009 -12.8584 0.872897
RightFoot  -21.9867 0.104001 2.71496
RightToes  -5.8209e-011 0 -3.6325e-017
Spine  8.45309 6.55408 10.8334
Spine1  -1.99081 9.7676 -13.5723
HEad  -18.7736 64.058 -27.7651
LeftShoulder1  0.614311 1.93569 -33.0844
LeftArm  -16.3808 4.36644 -27.3382
LeftForeArm  6.66318 1.82084 -15.6305
LeftHand  0.11417 1.42187 -3.62479
RightShoulder  8.36008 12.8317 44.7184
RightArm  -4.81441 1.08641 12.1593
RightForeArm  10.9255 3.21989 14.6871
RightHand  0.0854977 6.02121 0.535489
LeftUpLeg  -19.432 24.6715 -14.5895
LeftLeg  13.7844 17.324 0.723757
LeftFoot  -0.669449 -1.04709 11.2151
LeftToes  -4.03819e-010 -8.71445e-011 8.52097e-011
3048
root  43.4927 38.129 -69.6713 176.661 58.0029 178.949
RightUpLeg  11.3612 -33.0395 1.34934
RightLeg  23.7265 0.146597 -0.149129
RightFoot  -22.0986 0.507672 6.97819
RightToes  -5.8209e-011 0 -3.6325e-017
Spine  8.66715 6.71107 9.02951
Spine1  -2.49251 9.77115 -13.5441
HEad  -20.7603 63.7459 -28.2959
LeftShoulder1  0.586966 2.00108 -32.969
LeftArm  -16.375 3.93979 -25.6271
LeftForeArm  5.07738 1.5254 -15.6736
LeftHand  0.0919913 1.81371 -3.37168
RightShoulder  8.14575 12.2174 45.3037
RightArm  -3.70293 0.445131 11.6051
RightForeArm  10.5547 4.07602 14.6189
RightHand  0.0360581 6.08305 0.0299003
LeftUpLeg  -19.3154 23.8259 -15.3265
LeftLeg  17.4968 16.9372 4.40244
LeftFoot  -4.4783 -0.824779 14.1288
LeftToes  -4.03819e-010 -8.71445e-011 8.52097e-011
3049
root  44.8049 37.7542 -69.5831 173.784 56.0663 176.398
RightUpLeg  7.01529 -34.3356 -2.07339
RightLeg  39.4934 3.46497 2.78648
RightFoot  -16.9695 0.601427 14.5176
RightToes  -5.8209e-011 0 -3.6325e-017
Spine  9.7308 6.87776 6.28671
Spine1  -3.18208 9.74766 -14.3753
HEad  -23.933 63.9496 -30.1851
LeftShoulder1  0.5823 2.01329 -32.9757
LeftArm  -16.1016 3.29641 -24.2476
LeftForeArm  4.12712 0.622097 -15.6747
LeftHand  0.0807755 1.87348 -3.06427
RightShoulder  8.28594 12.2952 45.876
RightArm  -3.79991 0.0915303 11.5111
RightForeArm  11.5311 3.33404 14.753
RightHand  0.0425124 6.15924 0.0902953
LeftUpLeg  -20.0016 20.0608 -15.6493
LeftLeg  24.5391 16.1741 8.24317
LeftFoot  -7.53371 -0.339907 11.5522
LeftToes  -4.03819e-010 -8.71445e-011 8.52097e-011
3050
root  45.9888 37.4528 -69.482 171.005 53.4049 173.014
RightUpLeg  -0.58999 -33.6839 -5.55026
RightLeg  55.4156 4.75232 6.97714
RightFoot  -4.58783 -1.03649 16.9187
RightToes  -5.8209e-011 0 -3.6325e-017
Spine  10.2947 6.78499 3.53509
Spine1  -3.72727 9.47202 -15.5478
HEad  -26.4129 64.1696 -32.4619
LeftShoulder1  0.652539 1.85123 -33.3945
LeftArm  -15.5779 1.49981 -23.25
LeftForeArm  3.88262 0.368045 -15.7961
LeftHand  0.0795411 1.84042 -2.98766
RightShoulder  8.30895 12.306 45.9751
RightArm  -4.01451 -0.102152 12.0875
RightForeArm  12.376 2.31897 14.8984
RightHand  0.0727483 6.19886 0.390117
LeftUpLeg  -20.1631 16.0196 -16.3827
LeftLeg  28.9704 15.1089 9.22705
LeftFoot  -9.22143 -0.129749 9.99239
LeftToes  -4.03819e-010 -8.71445e-011 8.52097e-011
